<svg width="56" height="30" viewBox="0 0 56 30" fill="none" xmlns="http://www.w3.org/2000/svg">
<path d="M35.7758 14.8485C35.7758 18.7871 32.0753 21.9799 27.5105 21.9799C22.9456 21.9799 19.2451 18.7871 19.2451 14.8485C19.2451 10.91 22.9456 7.71718 27.5105 7.71718C32.0753 7.71714 35.7758 10.91 35.7758 14.8485ZM27.5254 0C22.7991 0.0188806 17.9001 1.05508 13.2625 3.03896C9.81914 4.57263 6.46343 6.73642 3.5505 9.40718C2.11982 10.7705 0.295027 12.7446 0 14.8508C0.0348655 16.6753 2.208 18.9273 3.5505 20.2945C6.28208 22.8604 9.5504 24.9638 13.2625 26.6643C17.5872 28.5545 22.3741 29.6428 27.5254 29.7033C32.2563 29.6841 37.1542 28.636 41.7866 26.6643C45.2299 25.1307 48.5874 22.9653 51.5003 20.2945C52.931 18.9312 54.7558 16.9571 55.0508 14.8508C55.016 13.0264 52.8428 10.7743 51.5003 9.4071C48.7688 6.84124 45.4987 4.73945 41.7866 3.03887C37.4641 1.15015 32.6654 0.0693667 27.5254 0ZM27.5219 3.68722C34.684 3.68722 40.4898 8.686 40.4898 14.8525C40.4898 21.0189 34.684 26.0176 27.5219 26.0176C20.3599 26.0176 14.554 21.0188 14.554 14.8525C14.554 8.686 20.3599 3.68722 27.5219 3.68722Z" fill="black"/>
</svg>
