<svg width="66" height="58" viewBox="0 0 66 58" fill="none" xmlns="http://www.w3.org/2000/svg">
<path d="M32.8373 0C14.6947 0 0 13.2922 0 29.7032C0 42.8469 9.39968 53.9484 22.4525 57.8841C24.0944 58.144 24.7101 57.2529 24.7101 56.4732C24.7101 55.7677 24.669 53.4286 24.669 50.941C16.4187 52.3147 14.2842 49.1216 13.6275 47.4508C13.2581 46.5969 11.6572 43.9607 10.2617 43.2553C9.11236 42.6983 7.47049 41.3246 10.2206 41.2874C12.8066 41.2503 14.6537 43.4409 15.2694 44.332C18.2247 48.8246 22.9451 47.5622 24.8332 46.7825C25.1205 44.8518 25.9825 43.5523 26.9266 42.8097C19.6203 42.0671 11.9856 39.5052 11.9856 28.1438C11.9856 24.9136 13.2581 22.2403 15.3514 20.161C15.0231 19.4185 13.8738 16.3739 15.6798 12.2897C15.6798 12.2897 18.4299 11.51 24.7101 15.3343C27.3371 14.666 30.1282 14.3318 32.9194 14.3318C35.7106 14.3318 38.5018 14.666 41.1287 15.3343C47.4089 11.4729 50.159 12.2897 50.159 12.2897C51.9651 16.3739 50.8158 19.4185 50.4874 20.161C52.5808 22.2403 53.8532 24.8764 53.8532 28.1438C53.8532 39.5424 46.1775 42.0671 38.8712 42.8097C40.0615 43.7379 41.0877 45.5201 41.0877 48.3048C41.0877 52.2776 41.0466 55.4707 41.0466 56.4732C41.0466 57.2529 41.6623 58.1811 43.3042 57.8841C49.8234 55.8939 55.4883 52.1044 59.5013 47.049C63.5144 41.9935 65.6735 35.9269 65.6746 29.7032C65.6746 13.2922 50.9799 0 32.8373 0Z" fill="black"/>
</svg>
