<svg width="34" height="34" viewBox="0 0 34 34" fill="none" xmlns="http://www.w3.org/2000/svg">
<path d="M30.0929 0.438293C31.0628 0.438293 31.993 0.828129 32.6789 1.52204C33.3647 2.21595 33.75 3.1571 33.75 4.13844V30.0395C33.75 31.0208 33.3647 31.962 32.6789 32.6559C31.993 33.3498 31.0628 33.7396 30.0929 33.7396H4.49306C3.52313 33.7396 2.59293 33.3498 1.90708 32.6559C1.22124 31.962 0.835938 31.0208 0.835938 30.0395V4.13844C0.835938 3.1571 1.22124 2.21595 1.90708 1.52204C2.59293 0.828129 3.52313 0.438293 4.49306 0.438293H30.0929ZM29.1786 29.1145V19.3091C29.1786 17.7095 28.5506 16.1754 27.4326 15.0443C26.3147 13.9132 24.7985 13.2778 23.2175 13.2778C21.6632 13.2778 19.853 14.2399 18.9752 15.6829V13.6293H13.8736V29.1145H18.9752V19.9936C18.9752 18.569 20.1089 17.4035 21.5169 17.4035C22.1959 17.4035 22.847 17.6764 23.3271 18.1621C23.8072 18.6478 24.0769 19.3066 24.0769 19.9936V29.1145H29.1786ZM7.93075 10.7247C8.74549 10.7247 9.52686 10.3972 10.103 9.81436C10.6791 9.23147 11.0027 8.44091 11.0027 7.61658C11.0027 5.89601 9.63131 4.48996 7.93075 4.48996C7.11116 4.48996 6.32514 4.81937 5.7456 5.40572C5.16606 5.99208 4.84048 6.78735 4.84048 7.61658C4.84048 9.33715 6.23019 10.7247 7.93075 10.7247ZM10.4724 29.1145V13.6293H5.40734V29.1145H10.4724Z" fill="#05185A"/>
</svg>
