<svg width="35" height="29" viewBox="0 0 35 29" fill="none" xmlns="http://www.w3.org/2000/svg">
<path d="M34.4506 3.79254C33.2035 4.35163 31.8638 4.7294 30.4554 4.90016C31.9086 4.0204 32.9958 2.63576 33.5141 1.0046C32.1488 1.8251 30.6546 2.40264 29.0964 2.71212C28.0485 1.58012 26.6605 0.82981 25.148 0.577684C23.6355 0.325558 22.083 0.585719 20.7316 1.31778C19.3802 2.04983 18.3055 3.21283 17.6743 4.6262C17.0431 6.03957 16.8907 7.62425 17.2409 9.13419C14.4745 8.99365 11.7682 8.26615 9.2976 6.99889C6.82704 5.73164 4.64745 3.95295 2.90029 1.77827C2.30289 2.82091 1.95938 4.02978 1.95938 5.31721C1.95872 6.4762 2.24081 7.61743 2.78063 8.63966C3.32045 9.66189 4.10131 10.5335 5.05393 11.1772C3.94914 11.1416 2.86874 10.8396 1.90263 10.2962V10.3869C1.90252 12.0124 2.45826 13.5879 3.47556 14.846C4.49287 16.1042 5.90906 16.9675 7.48386 17.2895C6.45899 17.5701 5.38449 17.6114 4.34152 17.4103C4.78584 18.809 5.65132 20.0321 6.81681 20.9084C7.9823 21.7846 9.38944 22.2702 10.8413 22.2972C8.37672 24.2546 5.33304 25.3164 2.19984 25.3118C1.64482 25.3119 1.09028 25.2791 0.539062 25.2135C3.71944 27.2825 7.42164 28.3805 11.2027 28.3762C24.002 28.3762 30.9991 17.6506 30.9991 8.34843C30.9991 8.04621 30.9916 7.74098 30.9782 7.43876C32.3392 6.44292 33.514 5.20977 34.4476 3.79707L34.4506 3.79254Z" fill="#05185A"/>
</svg>
